name rise34.3697peak60.0498fall86.3158.mot
datacolumns 19
datarows 17
range 20.34492600000000 20.37159100000000
endheader
time	ground_force1_vx	ground_force1_vy	ground_force1_vz	ground_force1_px	ground_force1_py	ground_force1_pz	ground_force2_vx	ground_force2_vy	ground_force2_vz	ground_force2_px	ground_force2_py	ground_force2_pz	ground_torque1_x	ground_torque1_y	ground_torque1_z	ground_torque2_x	ground_torque2_y	ground_torque2_z	
20.34492600000000	-8.75836500000000	46.74377300000000	-13.45313600000000	0.37266300000000	0.00000000000000	0.07553900000000	-47.70242900000000	757.83263799999997	-51.94064400000000	0.17976800000000	0.00000000000000	-0.10639400000000	0.00000000000000	-10.97485600000000	0.00000000000000	0.00000000000000	-25.29153800000000	0.00000000000000	
20.34659400000000	-9.29003500000000	53.77660600000000	-14.75874300000000	0.37539800000000	0.00000000000000	0.07701200000000	-48.12903700000000	754.56022599999994	-51.61001100000000	0.17889800000000	0.00000000000000	-0.10634000000000	0.00000000000000	-12.10495000000000	0.00000000000000	0.00000000000000	-25.20732900000000	0.00000000000000	
20.34826300000000	-9.62896400000000	60.82944200000000	-15.88606200000000	0.37795300000000	0.00000000000000	0.07834400000000	-48.57594900000000	751.21640100000002	-51.26275700000000	0.17801700000000	0.00000000000000	-0.10628100000000	0.00000000000000	-13.10374600000000	0.00000000000000	0.00000000000000	-25.12401000000000	0.00000000000000	
20.34992200000000	-9.76332700000000	67.83537600000000	-16.81468600000000	0.38035900000000	0.00000000000000	0.07955500000000	-49.04303200000000	747.79966300000001	-50.89852300000000	0.17712600000000	0.00000000000000	-0.10621800000000	0.00000000000000	-13.95406800000000	0.00000000000000	0.00000000000000	-25.04153400000000	0.00000000000000	
20.35158800000000	-9.69065000000000	74.75094799999999	-17.53535300000000	0.38264100000000	0.00000000000000	0.08066200000000	-49.53004700000000	744.30834600000003	-50.51695900000000	0.17622600000000	0.00000000000000	-0.10615100000000	0.00000000000000	-14.64757800000000	0.00000000000000	0.00000000000000	-24.95983700000000	0.00000000000000	
20.35325500000000	-9.41684300000000	81.55598999999999	-18.04910100000000	0.38481900000000	0.00000000000000	0.08167900000000	-50.03665800000000	740.74062600000002	-50.11772300000000	0.17531800000000	0.00000000000000	-0.10607800000000	0.00000000000000	-15.18418900000000	0.00000000000000	0.00000000000000	-24.87883600000000	0.00000000000000	
20.35492500000000	-8.95471800000000	88.25156800000001	-18.36573100000000	0.38691100000000	0.00000000000000	0.08261700000000	-50.56241900000000	737.09452299999998	-49.70048600000000	0.17440400000000	0.00000000000000	-0.10600100000000	0.00000000000000	-15.57088500000000	0.00000000000000	0.00000000000000	-24.79843200000000	0.00000000000000	
20.35658700000000	-8.32218000000000	94.85653600000001	-18.50180800000000	0.38892800000000	0.00000000000000	0.08348500000000	-51.10678000000000	733.36791600000004	-49.26493300000000	0.17348400000000	0.00000000000000	-0.10591800000000	0.00000000000000	-15.82017700000000	0.00000000000000	0.00000000000000	-24.71850800000000	0.00000000000000	
20.35825400000000	-7.54033200000000	101.40322100000000	-18.47846400000000	0.39088100000000	0.00000000000000	0.08429200000000	-51.66908300000000	729.55854499999998	-48.81076500000000	0.17255900000000	0.00000000000000	-0.10583100000000	0.00000000000000	-15.94836200000000	0.00000000000000	0.00000000000000	-24.63892700000000	0.00000000000000	
20.35992300000000	-6.63162200000000	107.93273900000000	-18.31919800000000	0.39277900000000	0.00000000000000	0.08504400000000	-52.24855900000000	725.66402500000004	-48.33770600000000	0.17163200000000	0.00000000000000	-0.10573800000000	0.00000000000000	-15.97377500000000	0.00000000000000	0.00000000000000	-24.55953700000000	0.00000000000000	
20.36158500000000	-5.61821700000000	114.49041300000000	-18.04787500000000	0.39463000000000	0.00000000000000	0.08574700000000	-52.84433100000000	721.68185000000005	-47.84550200000000	0.17070300000000	0.00000000000000	-0.10563900000000	0.00000000000000	-15.91517500000000	0.00000000000000	0.00000000000000	-24.48016700000000	0.00000000000000	
20.36325600000000	-4.52065900000000	121.12160700000000	-17.68702600000000	0.39643800000000	0.00000000000000	0.08640500000000	-53.45541200000000	717.60941400000002	-47.33392500000000	0.16977400000000	0.00000000000000	-0.10553600000000	0.00000000000000	-15.79036600000000	0.00000000000000	0.00000000000000	-24.40063000000000	0.00000000000000	
20.36492500000000	-3.35688800000000	127.86826499999999	-17.25655600000000	0.39820800000000	0.00000000000000	0.08702300000000	-54.08070300000000	713.44401200000004	-46.80277500000000	0.16884500000000	0.00000000000000	-0.10542600000000	0.00000000000000	-15.61512500000000	0.00000000000000	0.00000000000000	-24.32072000000000	0.00000000000000	
20.36658500000000	-2.14162300000000	134.76626899999999	-16.77286400000000	0.39994400000000	0.00000000000000	0.08760500000000	-54.71899800000000	709.18286200000000	-46.25188700000000	0.16792000000000	0.00000000000000	-0.10531200000000	0.00000000000000	-15.40247000000000	0.00000000000000	0.00000000000000	-24.24021600000000	0.00000000000000	
20.36825400000000	-0.88609400000000	141.84369400000000	-16.24838900000000	0.40165000000000	0.00000000000000	0.08815200000000	-55.36898300000000	704.82311000000004	-45.68112700000000	0.16699800000000	0.00000000000000	-0.10519100000000	0.00000000000000	-15.16225800000000	0.00000000000000	0.00000000000000	-24.15888000000000	0.00000000000000	
20.36992500000000	0.40191200000000	149.11992200000000	-15.69153000000000	0.40332600000000	0.00000000000000	0.08866900000000	-56.02923600000000	700.36185399999999	-45.09040300000000	0.16608100000000	0.00000000000000	-0.10506400000000	0.00000000000000	-14.90108900000000	0.00000000000000	0.00000000000000	-24.07645900000000	0.00000000000000	
20.37159100000000	1.71776600000000	156.60552700000000	-15.10688500000000	0.40497600000000	0.00000000000000	0.08915800000000	-56.69823300000000	695.79614800000002	-44.47965900000000	0.16517200000000	0.00000000000000	-0.10493200000000	0.00000000000000	-14.62247100000000	0.00000000000000	0.00000000000000	-23.99268400000000	0.00000000000000	
